<?xml version="1.0" encoding="UTF-8"?>
<svg xmlns="http://www.w3.org/2000/svg" version="1.1" viewBox="0 0 80 80">
  <!-- Generator: Adobe Illustrator 28.7.1, SVG Export Plug-In . SVG Version: 1.2.0 Build 142)  -->
  <g>
    <g id="Layer_1">
      <g>
        <path d="M27.9,72.9c-.9,3.2-2.7,5.2-5.5,6.1-4.5,1.5-9.5-1.7-10.1-6.3-.1-1-.5-1.2-1.3-1.1-1,0-1.9,0-2.9,0-1.1,0-1.7-.5-1.8-1.6-.2-1.3-.2-2.6,0-3.9.2-1.1.8-1.6,1.9-1.6.2,0,.4,0,.6,0,14.5,0,29.1,0,43.6-.1q1.7,0,1.7-1.6c0-5.9,0-11.7,0-17.6,0-2.4.6-3,3-3,4.1,0,8.2,0,12.2,0,1.2,0,2.1.4,2.9,1.2,1.4,1.5,2.9,3,4.4,4.5.7.7,1,1.4,1,2.4,0,3,0,6,0,8.9,0,.7,0,1.1.9,1.3.8.1,1.2.8,1.2,1.6,0,2.6,0,5.2,0,7.8,0,1-.6,1.7-1.7,1.7-1,0-2.1,0-3.1,0-.8,0-1.1.2-1.2,1-.6,3.3-2.4,5.4-5.6,6.5-4.4,1.5-9.5-1.7-10.1-6.4-.1-.9-.4-1.1-1.3-1.1-3.9,0-7.8,0-11.7,0-.9,0-1.2.3-1.3,1.1-.6,3.5-2.8,5.8-6.2,6.6-3.2.7-5.9-.5-8-3.1-.7-.9-1-1.9-1.5-3.2ZM65.7,56c1.6,0,3.3,0,4.9,0,1.2,0,1.4-.1,1.4-1.3,0-1.1,0-2.1,0-3.2,0-1.1-2.8-4.1-3.8-4.2-.1,0-.3,0-.4,0-2.4,0-4.8,0-7.2,0-.9,0-1.2.4-1.2,1.2,0,2.1,0,4.2,0,6.3,0,.9.4,1.3,1.3,1.3,1.7,0,3.4,0,5,0ZM65.6,74c1.4,0,2.7-1,2.8-2.4,0-1.5-1-2.7-2.4-2.7-1.4,0-2.7,1-2.8,2.4,0,1.4,1,2.7,2.5,2.7ZM22.7,71.4c0-1.5-1.1-2.6-2.6-2.6-1.4,0-2.6,1.2-2.6,2.6,0,1.5,1.2,2.6,2.6,2.6,1.4,0,2.6-1.2,2.6-2.6ZM33.2,71.4c0,1.5,1.1,2.6,2.6,2.6,1.4,0,2.5-1.1,2.5-2.5,0-1.5-1.1-2.7-2.6-2.7-1.4,0-2.5,1.1-2.5,2.6Z"/>
        <path d="M25.8,61.6c-5.4,0-10.9,0-16.3,0-2.8,0-4.8-1.2-6.4-3.4-3.4-4.7-3.4-13,0-17.6,1.4-1.8,3-3.1,5.4-3.1.8,0,1,.2,1,1,0,3.3,0,6.6,0,9.9,0,.3,0,.7,0,1,0,.6.4,1.1,1.1,1.1.7,0,1-.4,1.2-1.1q.3-1.4,1.8-1.4c.8,0,1.5,0,2.3,0,.8,0,1.1.3,1,1,0,.2,0,.3,0,.5.1.6.5.9,1,1,.6,0,1-.3,1.1-.8,0-.4.1-.8.1-1.2,0-3.3,0-6.5,0-9.8,0-1,.3-1.3,1.3-1.3,3.1,0,6.2,0,9.4,0,.3,0,.6,0,.9,0,.2,0,.5,0,.5-.4,0-.3,0-.5-.3-.6-.6-.3-.9-.8-.7-1.5.2-.8.9-1,1.5-1,2.5,0,5.1,0,7.6,0,.7,0,1.3.2,1.5,1,.2.7-.2,1.2-.7,1.5-.2.1-.4.3-.3.6,0,.3.4.4.7.4.8,0,1.5,0,2.3,0,2.3,0,4,1.2,5.4,2.9,4.1,4.9,3.8,14.4-.5,18.9-1.5,1.6-3.3,2.4-5.6,2.4-5.5,0-11,0-16.4,0ZM39.8,50.8c0-.4-.1-.9-.3-1.4-.9-2-2.2-3.7-3.6-5.3-.4-.5-.8-.2-1.1.1-1.1,1.4-2.3,2.7-3.1,4.3-.4.8-.8,1.5-.8,2.4,0,2.3,2.2,4.4,4.5,4.3,2.4,0,4.4-2.1,4.4-4.5Z"/>
        <path d="M14.3,45.6s0,0-.1,0c-2.6,0-2.4.5-2.4-2.7,0-.6.3-.8.8-.8,1.1,0,2.3,0,3.4,0,.5,0,.8.3.8.8,0,0,0,0,0,.1,0,3.1.3,2.5-2.6,2.6Z"/>
        <path d="M14.3,37.3c.4,0,.8,0,1.1,0,1.3,0,1.4.2,1.4,1.5,0,.6-.2,1-.9,1-1.1,0-2.2,0-3.3,0-.9,0-.9-.6-.9-1.2,0-.6,0-1.3.9-1.3.5,0,1.1,0,1.6,0,0,0,0,0,0,0Z"/>
      </g>
    </g>
  </g>
</svg>