<?xml version="1.0" encoding="UTF-8"?>
<svg xmlns="http://www.w3.org/2000/svg" version="1.1" viewBox="0 0 80 80">
  <!-- Generator: Adobe Illustrator 28.7.1, SVG Export Plug-In . SVG Version: 1.2.0 Build 142)  -->
  <g>
    <g id="Layer_1">
      <g id="Layer_1-2" data-name="Layer_1">
        <g>
          <path d="M28,60.6H8.5c-2.7,0-4-1.3-4-4.1v-7.6c0-2.3,1.4-3.7,3.7-3.7h14.1c.9,0,1.3-.3,1.5-1.1.6-2.5,1.2-5,1.8-7.5.5-2.1,1.8-3.2,3.9-3.2h13.1c2.1,0,3.2.9,4,2.7.8,2,1.6,3.9,2.4,5.9.5,1.2.8,2.4,1.4,3.5,1,1.9,1.3,3.9,1.2,6v5.5c0,2.3-1.4,3.7-3.7,3.7h-19.9ZM37.5,46.7v7.4c0,1.1.4,1.6,1.5,1.6h6.4c.7,0,1.3-.4,1.3-1.1,0-2,.4-4-.4-5.9-1.1-2.5-2.1-5.1-3.2-7.6-1.4-3.3-.5-2.9-4.6-3-.8,0-1,.2-1,1v7.6ZM35,43v-3.9c0-.6-.2-.8-.8-.8h-2.2c-.9,0-1.4.4-1.6,1.3-.5,2-1.1,4-1.6,6-.3,1.3,0,1.8,1.4,1.9h3.9c.7,0,.9-.3.9-.9v-3.6ZM9.4,52.9v1.7c0,.6.4,1.2,1.1,1.2s1-.5,1.1-1.1v-3.4c0-.6-.4-1.1-1-1.1s-1,.5-1.1,1.1v1.7h-.1ZM16.2,52.9h0v-1.8c0-.6-.5-1-1-1s-1,.4-1,1v3.6c0,.6.4,1,1,1s1-.4,1.1-1v-1.7h-.1ZM20.9,52.9v-1.7c0-.6-.4-1.1-1-1.1s-1.1.5-1.1,1.1v3.3c0,.6.4,1,1.1,1s1-.4,1.1-1v-1.7h-.1Z"/>
          <path d="M31,62.8h18.2c4.7,0,8.3,3.6,8.3,8.3s-3.6,8.3-8.3,8.3H12.8c-4.2,0-7.7-3-8.2-6.9-.6-4.4,1.9-8.2,6-9.4.7-.2,1.5-.2,2.2-.2h18.2ZM18.5,71.1c0-1.8-1.6-3.4-3.4-3.4s-3.4,1.5-3.5,3.3c0,1.8,1.6,3.5,3.4,3.5s3.4-1.6,3.4-3.4h.1ZM29.1,71c0-1.8-1.6-3.4-3.4-3.4s-3.4,1.6-3.4,3.4,1.7,3.5,3.5,3.4c1.8,0,3.4-1.7,3.3-3.5h0ZM50.3,71.1c0-1.8-1.6-3.4-3.4-3.4s-3.4,1.5-3.4,3.4,1.6,3.5,3.4,3.5,3.4-1.7,3.4-3.4h0ZM39.7,71.1c0-1.8-1.6-3.4-3.4-3.4s-3.4,1.6-3.4,3.4,1.6,3.5,3.4,3.4c1.8,0,3.4-1.6,3.4-3.4Z"/>
          <path d="M71.8,39.5c-1,0-2.2,0-3.3.6-.6.3-.7-.2-.9-.6-.6-1.6-1.2-3.2-1.7-4.8-2.3-6.3-4.4-12.5-6.8-18.7-1.2-3.1,1-6.3,3.7-7,3.3-.8,6.2,1,6.8,4.3,1.5,8.1,3,16.2,4.6,24.3.4,2,.4,1.9-1.5,1.9h-.9ZM64.5,15.8c.6-.1,1-.5,1-1s-.4-1.1-1-1c-.6,0-1,.5-1,1.1s.5.9,1,1h0Z"/>
          <path d="M37.6,31.2h-6.4c-.5,0-1,0-.7-.7.9-2.8,2-5.6,4.4-7.5,1.2-.9,2.5-1.4,3.9-2,5.6-2.3,11.2-4.6,16.7-6.9.9-.4,1.1-.2,1.2.7.2,1.8,1,3.4,1.6,5,.3.9.2,1.4-.7,1.9-3.4,2.1-6.8,4.3-10.3,6.4-1.1.7-2.1,1.4-2.6,2.6-.2.5-.6.5-1.1.5h-6.3.3Z"/>
          <path d="M63.8,58.2h-3.4c-.7,0-1.4,0-1.8-.7-.3-.7,0-1.3.5-1.9,2.9-3.8,5.7-7.6,8.6-11.4,2.4-3.2,1.2-2.5,5.2-2.6h.9c.8,0,1.3.4,1.3,1.3v8c-.2,3.7-3.8,7.1-7.5,7.3h-3.8Z"/>
        </g>
      </g>
    </g>
  </g>
</svg>