<?xml version="1.0" encoding="UTF-8"?>
<svg xmlns="http://www.w3.org/2000/svg" version="1.1" viewBox="0 0 80 80">
  <defs>
    <style>
      .cls-1 {
        fill: #1d1d1b;
      }
    </style>
  </defs>
  <!-- Generator: Adobe Illustrator 28.7.1, SVG Export Plug-In . SVG Version: 1.2.0 Build 142)  -->
  <g>
    <g id="Layer_1">
      <g id="Layer_1-2" data-name="Layer_1">
        <g>
          <path class="cls-1" d="M13,45.5h7.8c.8,0,1.3.2,1.9.8,1.3,1.3,2.7,2.6,4,3.9.4.4.8.6,1.4.6h10.1c.8,0,.9-.2.6-.9l-6-13.5c-.2-.5-.5-.8-1.1-.7h-2.3c-.8,0-1,.3-1,1v11.4c0,.2,0,.5-.2.6-.3.2-.5,0-.7-.3-1-1-2.1-2-3.1-3-1.1-1.2-2.4-1.9-4.1-1.7-.7,0-.9-.3-.9-1v-8c0-1.1.4-1.5,1.4-1.5h15.5c.6,0,1.1.2,1.4.8.4.9-.2,1.6-1.3,1.7-1.2,0-1.3,0-.7,1.2,1.9,4.2,3.8,8.4,5.6,12.7.4,1,1,1.3,2,1.3,2.4,0,2.1.3,2.1-2.2v-.7c0-.9-.2-1.3-1.1-1.3s-1.3-.5-1.3-1.3v-9.6c0-.8.5-1.2,1.3-1.2s1.2-.4,1.2-1.3.2-1.2.8-1.6c.6-.3,1.1-.7,1.7-1.1.8-.5,1.5-.4,1.9.3.5.8,0,1.3-.6,1.8-.3.2-.7.4-1,.6-.3.2-.5.5-.4.9s.5.3.7.3c1.8,0,2,.4,2,2.1v7.9c0,1.6-.4,2-2,2.1-.6,0-.8.3-.8.8v2.4c0,.7.3.9.9.9h.2c2.5-.4,4.4.5,5.9,2.5.9,1.1,1.9,2,3,3,.6.5.8,1.2.8,2v2.9c0,.6.3.9.9.9,1.9,0,2,0,2.3-1.7.4-2.7,1.7-4.6,4.3-5.6,1.2-.5,2.3-1.3,3.4-1.9,1.3-.7,2-.4,2.3,1,.9,4.4,1.7,8.9,2.5,13.3.3,1.6.7,3.1.9,4.7,0,.8.5,1.1,1.2,1.2s1.3.4,1.5,1.2c.2,1-.5,1.7-1.5,1.4-3.6-.9-7.2-1.9-10.8-2.8-.9-.2-1.4-.7-1.7-1.5-.7-2-1.5-4-2.2-6-.3-.7-2.4-1.1-3-.6-.2.2-.2.5-.2.8v2.5c0,1.1-.5,1.4-1.8,1.4s-1.4-.2-1.5-1.3c-.6-5.8-5.6-10.2-11.5-10.2s-10.8,4.5-11.4,10.2c0,.9-.3,1.4-1.4,1.3q-2.4,0-2.7-2.6c-.5-4.6-2.8-8.1-6.9-10.3-7.9-4.3-18.1,1-19.1,9.9,0,.7,0,1.4-.2,2.1,0,.3,0,.6-.3.6s-.5,0-.7-.3c-.3-.3-.3-.7-.3-1.1v-8.1c0-1,.5-1.6,1.2-2.1,1-.7,1.4-1.6,1.3-2.9v-7.1c0-1.6.3-2,1.9-2h7.9Z"/>
          <path class="cls-1" d="M26.7,68.1c0,6.2-5.1,11.3-11.3,11.2-6.2,0-11.2-5.1-11.2-11.4s5.1-11.2,11.3-11.2,11.3,5.1,11.3,11.3h-.1ZM20.8,68.1c0-2.8-2.4-5.2-5.4-5.3-2.8,0-5.3,2.4-5.3,5.3s2.5,5.3,5.3,5.3,5.4-2.4,5.4-5.3Z"/>
          <path class="cls-1" d="M53.8,69.6c0,5.4-4.4,9.8-9.7,9.8s-9.8-4.4-9.8-9.8,4.5-10,9.8-10,9.8,4.5,9.8,9.9h0ZM44,64.9c-2.6,0-4.7,2.1-4.7,4.6s1.9,4.7,4.6,4.7,4.7-2,4.7-4.7-2-4.6-4.6-4.7h0Z"/>
          <path class="cls-1" d="M15.4,64.6c1.8,0,3.5,1.6,3.4,3.5,0,1.8-1.6,3.4-3.4,3.4s-3.3-1.5-3.3-3.4,1.5-3.5,3.3-3.5Z"/>
          <path class="cls-1" d="M44.1,72.4c-1.6,0-2.8-1.2-2.7-2.8,0-1.4,1.2-2.7,2.7-2.7s2.8,1.2,2.8,2.8-1.1,2.7-2.7,2.7h0Z"/>
        </g>
      </g>
    </g>
  </g>
</svg>