<?xml version="1.0" encoding="UTF-8"?>
<svg xmlns="http://www.w3.org/2000/svg" version="1.1" viewBox="0 0 108 96.9">
  <defs>
    <style>
      .cls-1 {
        fill: #d11224;
      }
    </style>
  </defs>
  <!-- Generator: Adobe Illustrator 28.7.1, SVG Export Plug-In . SVG Version: 1.2.0 Build 142)  -->
  <g>
    <g id="Layer_1">
      <g>
        <path class="cls-1" d="M54,.9L.9,84.2h106.2L54,.9ZM54,8.8l45.4,71.2H8.6L54,8.8Z"/>
        <g>
          <polygon class="cls-1" points="54.7 63 51.4 35.6 44.1 41.3 44.1 77.1 48.9 77.1 48.9 49.7 52.6 77.1 56.9 77.1 60.6 49.7 60.6 77.1 65.4 77.1 65.4 41.5 57.9 35.8 54.7 63"/>
          <path class="cls-1" d="M78.6,51.7l-4.8-3.6-6.9,29h5.7l1.1-4.9,6.2.8.9,4.1h4.7l-6.8-25.4ZM75.1,66.1l1.6-7.5,1.9,8.5-3.5-1Z"/>
          <polygon class="cls-1" points="31.7 66.9 39.8 64.5 39.8 58.4 31.9 61.9 32.1 56.6 40.9 51.4 40.9 43.8 28.1 53.6 26.2 77.1 41.5 77.1 41.5 70.5 31.5 72 31.7 66.9"/>
        </g>
        <g>
          <path class="cls-1" d="M.9,88.2h7.2v1.9h-2.4v5.8h-2.4v-5.8H.9v-1.9Z"/>
          <path class="cls-1" d="M9.2,88.2h6.4v1.6h-4v1.2h3.7v1.6h-3.7v1.5h4.1v1.7h-6.5v-7.7Z"/>
          <path class="cls-1" d="M17,95.9v-7.7h4c.7,0,1.3,0,1.7.2.4.1.7.4.9.7.2.3.4.8.4,1.2s0,.8-.3,1.1c-.2.3-.4.6-.8.8-.2.1-.5.2-.8.3.3,0,.5.2.6.3,0,0,.2.2.4.4s.3.4.3.5l1.2,2.2h-2.7l-1.3-2.4c-.2-.3-.3-.5-.4-.6-.2-.1-.4-.2-.6-.2h-.2v3.1h-2.4ZM19.4,91.3h1c.1,0,.3,0,.6-.1.2,0,.3-.1.4-.2,0-.1.1-.3.1-.4,0-.2,0-.4-.2-.6-.2-.1-.5-.2-.9-.2h-1v1.6Z"/>
          <path class="cls-1" d="M25.4,95.9v-7.7h4c.7,0,1.3,0,1.7.2.4.1.7.4.9.7.2.3.4.8.4,1.2s0,.8-.3,1.1c-.2.3-.4.6-.8.8-.2.1-.5.2-.8.3.3,0,.5.2.6.3,0,0,.2.2.4.4s.3.4.3.5l1.2,2.2h-2.7l-1.3-2.4c-.2-.3-.3-.5-.4-.6-.2-.1-.4-.2-.6-.2h-.2v3.1h-2.4ZM27.8,91.3h1c.1,0,.3,0,.6-.1.2,0,.3-.1.4-.2,0-.1.1-.3.1-.4,0-.2,0-.4-.2-.6-.2-.1-.5-.2-.9-.2h-1v1.6Z"/>
          <path class="cls-1" d="M38.4,94.6h-2.7l-.4,1.3h-2.4l2.9-7.7h2.6l2.9,7.7h-2.5l-.4-1.3ZM37.9,93l-.8-2.8-.8,2.8h1.7Z"/>
          <path class="cls-1" d="M42,88.2h4c.9,0,1.5.2,1.9.6.4.4.6,1,.6,1.7s-.2,1.4-.7,1.8-1.2.7-2.1.7h-1.3v2.9h-2.4v-7.7ZM44.4,91.5h.6c.5,0,.8,0,1-.2.2-.2.3-.4.3-.6s0-.4-.2-.6-.5-.3-.9-.3h-.7v1.7Z"/>
          <path class="cls-1" d="M49.8,88.2h2.4v5.8h3.7v1.9h-6.1v-7.7Z"/>
          <path class="cls-1" d="M57,88.2h6.4v1.6h-4v1.2h3.7v1.6h-3.7v1.5h4.1v1.7h-6.5v-7.7Z"/>
          <path class="cls-1" d="M64.8,88.2h2.2l2.9,4.3v-4.3h2.2v7.7h-2.2l-2.9-4.2v4.2h-2.2v-7.7Z"/>
          <path class="cls-1" d="M78.3,94.6h-2.7l-.4,1.3h-2.4l2.9-7.7h2.6l2.9,7.7h-2.5l-.4-1.3ZM77.9,93l-.8-2.8-.8,2.8h1.7Z"/>
          <path class="cls-1" d="M85.7,93.1v-1.6h3.7v3.3c-.7.5-1.3.8-1.9,1s-1.2.3-1.9.3-1.7-.2-2.2-.5-1-.8-1.3-1.4c-.3-.6-.5-1.3-.5-2.1s.2-1.6.5-2.2c.3-.6.9-1.1,1.5-1.4.5-.2,1.2-.4,2.1-.4s1.5,0,1.9.2c.4.2.8.4,1.1.7.3.3.5.7.6,1.2l-2.3.4c0-.3-.3-.5-.5-.7-.2-.2-.5-.2-.9-.2-.5,0-.9.2-1.2.5-.3.4-.5.9-.5,1.7s.2,1.4.5,1.8c.3.4.7.5,1.3.5s.5,0,.8-.1c.2,0,.5-.2.8-.4v-.7h-1.6Z"/>
          <path class="cls-1" d="M90.7,88.2h6.4v1.6h-4v1.2h3.7v1.6h-3.7v1.5h4.1v1.7h-6.5v-7.7Z"/>
          <path class="cls-1" d="M98.5,88.2h3.1l1.2,4.7,1.2-4.7h3.1v7.7h-1.9v-5.9l-1.5,5.9h-1.8l-1.5-5.9v5.9h-1.9v-7.7Z"/>
        </g>
      </g>
    </g>
  </g>
</svg>